<?xml version="1.0" standalone="no"?>
<svg xmlns:xlink="http://www.w3.org/1999/xlink" id="wave" style="transform:rotate(0deg); transition: 0.3s" viewBox="0 0 1440 230" version="1.1" xmlns="http://www.w3.org/2000/svg"><defs><linearGradient id="sw-gradient-0" x1="0" x2="0" y1="1" y2="0"><stop stop-color="rgba(255, 0, 200, 1)" offset="0%"/><stop stop-color="rgba(179, 0, 255, 1)" offset="100%"/></linearGradient></defs><path style="transform:translate(0, 0px); opacity:1" fill="url(#sw-gradient-0)" d="M0,138L26.7,122.7C53.3,107,107,77,160,72.8C213.3,69,267,92,320,115C373.3,138,427,161,480,153.3C533.3,146,587,107,640,103.5C693.3,100,747,130,800,126.5C853.3,123,907,84,960,61.3C1013.3,38,1067,31,1120,57.5C1173.3,84,1227,146,1280,164.8C1333.3,184,1387,161,1440,141.8C1493.3,123,1547,107,1600,92C1653.3,77,1707,61,1760,69C1813.3,77,1867,107,1920,99.7C1973.3,92,2027,46,2080,30.7C2133.3,15,2187,31,2240,38.3C2293.3,46,2347,46,2400,42.2C2453.3,38,2507,31,2560,26.8C2613.3,23,2667,23,2720,42.2C2773.3,61,2827,100,2880,99.7C2933.3,100,2987,61,3040,57.5C3093.3,54,3147,84,3200,115C3253.3,146,3307,176,3360,157.2C3413.3,138,3467,69,3520,46C3573.3,23,3627,46,3680,49.8C3733.3,54,3787,38,3813,30.7L3840,23L3840,230L3813.3,230C3786.7,230,3733,230,3680,230C3626.7,230,3573,230,3520,230C3466.7,230,3413,230,3360,230C3306.7,230,3253,230,3200,230C3146.7,230,3093,230,3040,230C2986.7,230,2933,230,2880,230C2826.7,230,2773,230,2720,230C2666.7,230,2613,230,2560,230C2506.7,230,2453,230,2400,230C2346.7,230,2293,230,2240,230C2186.7,230,2133,230,2080,230C2026.7,230,1973,230,1920,230C1866.7,230,1813,230,1760,230C1706.7,230,1653,230,1600,230C1546.7,230,1493,230,1440,230C1386.7,230,1333,230,1280,230C1226.7,230,1173,230,1120,230C1066.7,230,1013,230,960,230C906.7,230,853,230,800,230C746.7,230,693,230,640,230C586.7,230,533,230,480,230C426.7,230,373,230,320,230C266.7,230,213,230,160,230C106.7,230,53,230,27,230L0,230Z"/></svg>